solid
  facet normal -1.0000000E+00 +1.1723955E-15 +0.0000000E+00
    outer loop      
      vertex   -1.0000000E+01 +0.0000000E+00 +2.0000000E+01
      vertex   -1.0000000E+01 +1.0000000E+03 +2.0000000E+01
      vertex   -1.0000000E+01 +1.0000000E+03 +0.0000000E+00
    endloop
  endfacet
  facet normal -1.0000000E+00 +1.1723955E-15 +0.0000000E+00
    outer loop      
      vertex   -1.0000000E+01 +2.0000000E+03 +0.0000000E+00
      vertex   -1.0000000E+01 +1.0000000E+03 +0.0000000E+00
      vertex   -1.0000000E+01 +1.0000000E+03 +2.0000000E+01
    endloop
  endfacet
  facet normal -1.0000000E+00 +1.1723955E-15 +0.0000000E+00
    outer loop      
      vertex   -1.0000000E+01 +1.0000000E+03 +2.0000000E+01
      vertex   -1.0000000E+01 +2.0000000E+03 +2.0000000E+01
      vertex   -1.0000000E+01 +2.0000000E+03 +0.0000000E+00
    endloop
  endfacet
  facet normal -1.0000000E+00 +1.1723955E-15 +0.0000000E+00
    outer loop      
      vertex   -1.0000000E+01 +1.0000000E+03 +0.0000000E+00
      vertex   -1.0000000E+01 +0.0000000E+00 +0.0000000E+00
      vertex   -1.0000000E+01 +0.0000000E+00 +2.0000000E+01
    endloop
  endfacet
  facet normal +0.0000000E+00 +1.0000000E+00 +0.0000000E+00
    outer loop      
      vertex   +1.0000000E+01 +2.0000000E+03 +2.0000000E+01
      vertex   +1.0000000E+01 +2.0000000E+03 +0.0000000E+00
      vertex   -1.0000000E+01 +2.0000000E+03 +0.0000000E+00
    endloop
  endfacet
  facet normal +0.0000000E+00 +1.0000000E+00 +0.0000000E+00
    outer loop      
      vertex   -1.0000000E+01 +2.0000000E+03 +0.0000000E+00
      vertex   -1.0000000E+01 +2.0000000E+03 +2.0000000E+01
      vertex   +1.0000000E+01 +2.0000000E+03 +2.0000000E+01
    endloop
  endfacet
  facet normal +1.0000000E+00 -1.2079226E-16 +0.0000000E+00
    outer loop      
      vertex   +1.0000000E+01 +2.0000000E+03 +2.0000000E+01
      vertex   +1.0000000E+01 +1.0000000E+03 +2.0000000E+01
      vertex   +1.0000000E+01 +1.0000000E+03 +0.0000000E+00
    endloop
  endfacet
  facet normal +1.0000000E+00 -1.1723955E-15 +0.0000000E+00
    outer loop      
      vertex   +1.0000000E+01 +0.0000000E+00 +0.0000000E+00
      vertex   +1.0000000E+01 +1.0000000E+03 +0.0000000E+00
      vertex   +1.0000000E+01 +1.0000000E+03 +2.0000000E+01
    endloop
  endfacet
  facet normal +1.0000000E+00 -1.1723955E-15 +0.0000000E+00
    outer loop      
      vertex   +1.0000000E+01 +1.0000000E+03 +2.0000000E+01
      vertex   +1.0000000E+01 +0.0000000E+00 +2.0000000E+01
      vertex   +1.0000000E+01 +0.0000000E+00 +0.0000000E+00
    endloop
  endfacet
  facet normal +1.0000000E+00 -1.2079226E-16 +0.0000000E+00
    outer loop      
      vertex   +1.0000000E+01 +1.0000000E+03 +0.0000000E+00
      vertex   +1.0000000E+01 +2.0000000E+03 +0.0000000E+00
      vertex   +1.0000000E+01 +2.0000000E+03 +2.0000000E+01
    endloop
  endfacet
  facet normal +0.0000000E+00 -1.0000000E+00 +0.0000000E+00
    outer loop      
      vertex   -1.0000000E+01 +0.0000000E+00 +2.0000000E+01
      vertex   -1.0000000E+01 +0.0000000E+00 +0.0000000E+00
      vertex   +1.0000000E+01 +0.0000000E+00 +0.0000000E+00
    endloop
  endfacet
  facet normal +0.0000000E+00 -1.0000000E+00 +0.0000000E+00
    outer loop      
      vertex   +1.0000000E+01 +0.0000000E+00 +0.0000000E+00
      vertex   +1.0000000E+01 +0.0000000E+00 +2.0000000E+01
      vertex   -1.0000000E+01 +0.0000000E+00 +2.0000000E+01
    endloop
  endfacet
  facet normal +0.0000000E+00 +0.0000000E+00 +1.0000000E+00
    outer loop      
      vertex   +1.0000000E+01 +0.0000000E+00 +2.0000000E+01
      vertex   +1.0000000E+01 +1.0000000E+03 +2.0000000E+01
      vertex   -1.0000000E+01 +1.0000000E+03 +2.0000000E+01
    endloop
  endfacet
  facet normal +0.0000000E+00 +0.0000000E+00 +1.0000000E+00
    outer loop      
      vertex   +1.0000000E+01 +1.0000000E+03 +2.0000000E+01
      vertex   +1.0000000E+01 +2.0000000E+03 +2.0000000E+01
      vertex   -1.0000000E+01 +2.0000000E+03 +2.0000000E+01
    endloop
  endfacet
  facet normal +0.0000000E+00 +0.0000000E+00 +1.0000000E+00
    outer loop      
      vertex   -1.0000000E+01 +2.0000000E+03 +2.0000000E+01
      vertex   -1.0000000E+01 +1.0000000E+03 +2.0000000E+01
      vertex   +1.0000000E+01 +1.0000000E+03 +2.0000000E+01
    endloop
  endfacet
  facet normal +0.0000000E+00 +0.0000000E+00 +1.0000000E+00
    outer loop      
      vertex   -1.0000000E+01 +1.0000000E+03 +2.0000000E+01
      vertex   -1.0000000E+01 +0.0000000E+00 +2.0000000E+01
      vertex   +1.0000000E+01 +0.0000000E+00 +2.0000000E+01
    endloop
  endfacet
  facet normal +0.0000000E+00 +0.0000000E+00 -1.0000000E+00
    outer loop      
      vertex   +1.0000000E+01 +1.0000000E+03 +0.0000000E+00
      vertex   -1.0000000E+01 +1.0000000E+03 +0.0000000E+00
      vertex   -1.0000000E+01 +2.0000000E+03 +0.0000000E+00
    endloop
  endfacet
  facet normal +0.0000000E+00 +0.0000000E+00 -1.0000000E+00
    outer loop      
      vertex   -1.0000000E+01 +1.0000000E+03 +0.0000000E+00
      vertex   +1.0000000E+01 +1.0000000E+03 +0.0000000E+00
      vertex   +1.0000000E+01 +0.0000000E+00 +0.0000000E+00
    endloop
  endfacet
  facet normal +0.0000000E+00 +0.0000000E+00 -1.0000000E+00
    outer loop      
      vertex   +1.0000000E+01 +0.0000000E+00 +0.0000000E+00
      vertex   -1.0000000E+01 +0.0000000E+00 +0.0000000E+00
      vertex   -1.0000000E+01 +1.0000000E+03 +0.0000000E+00
    endloop
  endfacet
  facet normal +0.0000000E+00 +0.0000000E+00 -1.0000000E+00
    outer loop      
      vertex   -1.0000000E+01 +2.0000000E+03 +0.0000000E+00
      vertex   +1.0000000E+01 +2.0000000E+03 +0.0000000E+00
      vertex   +1.0000000E+01 +1.0000000E+03 +0.0000000E+00
    endloop
  endfacet
endsolid
